<svg id="visual" viewBox="0 0 3000 200" width="3000" height="200" xmlns="http://www.w3.org/2000/svg" xmlns:xlink="http://www.w3.org/1999/xlink" version="1.1"><rect x="0" y="0" width="3000" height="200" fill="#fcfbfb"></rect><path d="M0 150L35.7 142.3C71.3 134.7 142.7 119.3 214.2 116.7C285.7 114 357.3 124 428.8 111C500.3 98 571.7 62 643 66C714.3 70 785.7 114 857 114.3C928.3 114.7 999.7 71.3 1071.2 63.3C1142.7 55.3 1214.3 82.7 1285.8 96.5C1357.3 110.3 1428.7 110.7 1500 100.5C1571.3 90.3 1642.7 69.7 1714.2 75.3C1785.7 81 1857.3 113 1928.8 129.7C2000.3 146.3 2071.7 147.7 2143 147.3C2214.3 147 2285.7 145 2357 147.7C2428.3 150.3 2499.7 157.7 2571.2 149.2C2642.7 140.7 2714.3 116.3 2785.8 93.2C2857.3 70 2928.7 48 2964.3 37L3000 26L3000 0L2964.3 0C2928.7 0 2857.3 0 2785.8 0C2714.3 0 2642.7 0 2571.2 0C2499.7 0 2428.3 0 2357 0C2285.7 0 2214.3 0 2143 0C2071.7 0 2000.3 0 1928.8 0C1857.3 0 1785.7 0 1714.2 0C1642.7 0 1571.3 0 1500 0C1428.7 0 1357.3 0 1285.8 0C1214.3 0 1142.7 0 1071.2 0C999.7 0 928.3 0 857 0C785.7 0 714.3 0 643 0C571.7 0 500.3 0 428.8 0C357.3 0 285.7 0 214.2 0C142.7 0 71.3 0 35.7 0L0 0Z" fill="#adaed8" stroke-linecap="round" stroke-linejoin="miter"></path></svg>