<svg id="visual" viewBox="0 0 1600 600" width="1600" height="600" xmlns="http://www.w3.org/2000/svg" xmlns:xlink="http://www.w3.org/1999/xlink" version="1.1"><rect x="0" y="0" width="1600" height="600" fill="#fcfbfb"></rect><path d="M0 86L24.2 94C48.3 102 96.7 118 145.2 113.8C193.7 109.7 242.3 85.3 290.8 71C339.3 56.7 387.7 52.3 436.2 48C484.7 43.7 533.3 39.3 581.8 46.3C630.3 53.3 678.7 71.7 727.2 84.3C775.7 97 824.3 104 872.8 98.3C921.3 92.7 969.7 74.3 1018.2 64C1066.7 53.7 1115.3 51.3 1163.8 51.3C1212.3 51.3 1260.7 53.7 1309.2 65.8C1357.7 78 1406.3 100 1454.8 113.7C1503.3 127.3 1551.7 132.7 1575.8 135.3L1600 138L1600 0L1575.8 0C1551.7 0 1503.3 0 1454.8 0C1406.3 0 1357.7 0 1309.2 0C1260.7 0 1212.3 0 1163.8 0C1115.3 0 1066.7 0 1018.2 0C969.7 0 921.3 0 872.8 0C824.3 0 775.7 0 727.2 0C678.7 0 630.3 0 581.8 0C533.3 0 484.7 0 436.2 0C387.7 0 339.3 0 290.8 0C242.3 0 193.7 0 145.2 0C96.7 0 48.3 0 24.2 0L0 0Z" fill="#adaed8" stroke-linecap="round" stroke-linejoin="miter"></path></svg>