<svg id="visual" viewBox="0 0 3000 200" width="3000" height="200" xmlns="http://www.w3.org/2000/svg" xmlns:xlink="http://www.w3.org/1999/xlink" version="1.1"><rect x="0" y="0" width="3000" height="200" fill="#fcfbfb"></rect><path d="M0 72L22.7 65.2C45.3 58.3 90.7 44.7 136.2 59.5C181.7 74.3 227.3 117.7 272.8 129.5C318.3 141.3 363.7 121.7 409 99.2C454.3 76.7 499.7 51.3 545.2 62.2C590.7 73 636.3 120 681.8 123.7C727.3 127.3 772.7 87.7 818.2 84.2C863.7 80.7 909.3 113.3 954.8 109.8C1000.3 106.3 1045.7 66.7 1091 70.2C1136.3 73.7 1181.7 120.3 1227.2 125.5C1272.7 130.7 1318.3 94.3 1363.8 95.2C1409.3 96 1454.7 134 1500 151C1545.3 168 1590.7 164 1636.2 141.2C1681.7 118.3 1727.3 76.7 1772.8 53.5C1818.3 30.3 1863.7 25.7 1909 31C1954.3 36.3 1999.7 51.7 2045.2 60.2C2090.7 68.7 2136.3 70.3 2181.8 75.2C2227.3 80 2272.7 88 2318.2 82.7C2363.7 77.3 2409.3 58.7 2454.8 63.3C2500.3 68 2545.7 96 2591 100C2636.3 104 2681.7 84 2727.2 81.3C2772.7 78.7 2818.3 93.3 2863.8 88C2909.3 82.7 2954.7 57.3 2977.3 44.7L3000 32L3000 0L2977.3 0C2954.7 0 2909.3 0 2863.8 0C2818.3 0 2772.7 0 2727.2 0C2681.7 0 2636.3 0 2591 0C2545.7 0 2500.3 0 2454.8 0C2409.3 0 2363.7 0 2318.2 0C2272.7 0 2227.3 0 2181.8 0C2136.3 0 2090.7 0 2045.2 0C1999.7 0 1954.3 0 1909 0C1863.7 0 1818.3 0 1772.8 0C1727.3 0 1681.7 0 1636.2 0C1590.7 0 1545.3 0 1500 0C1454.7 0 1409.3 0 1363.8 0C1318.3 0 1272.7 0 1227.2 0C1181.7 0 1136.3 0 1091 0C1045.7 0 1000.3 0 954.8 0C909.3 0 863.7 0 818.2 0C772.7 0 727.3 0 681.8 0C636.3 0 590.7 0 545.2 0C499.7 0 454.3 0 409 0C363.7 0 318.3 0 272.8 0C227.3 0 181.7 0 136.2 0C90.7 0 45.3 0 22.7 0L0 0Z" fill="#adaed8" stroke-linecap="round" stroke-linejoin="miter"></path></svg>