<svg id="visual" viewBox="0 0 2600 600" width="2600" height="600" xmlns="http://www.w3.org/2000/svg" xmlns:xlink="http://www.w3.org/1999/xlink" version="1.1"><rect x="0" y="0" width="2600" height="600" fill="#fcfbfb"></rect><path d="M0 138L54.2 121C108.3 104 216.7 70 325 69.5C433.3 69 541.7 102 650 102.7C758.3 103.3 866.7 71.7 975 52.8C1083.3 34 1191.7 28 1300 38.5C1408.3 49 1516.7 76 1625 76.8C1733.3 77.7 1841.7 52.3 1950 58.2C2058.3 64 2166.7 101 2275 119.7C2383.3 138.3 2491.7 138.7 2545.8 138.8L2600 139L2600 0L2545.8 0C2491.7 0 2383.3 0 2275 0C2166.7 0 2058.3 0 1950 0C1841.7 0 1733.3 0 1625 0C1516.7 0 1408.3 0 1300 0C1191.7 0 1083.3 0 975 0C866.7 0 758.3 0 650 0C541.7 0 433.3 0 325 0C216.7 0 108.3 0 54.2 0L0 0Z" fill="#adaed8" stroke-linecap="round" stroke-linejoin="miter"></path></svg>